<?xml version="1.0" encoding="UTF-8" standalone="no"?>
<svg
   xmlns:dc="http://purl.org/dc/elements/1.1/"
   xmlns:cc="http://creativecommons.org/ns#"
   xmlns:rdf="http://www.w3.org/1999/02/22-rdf-syntax-ns#"
   xmlns:svg="http://www.w3.org/2000/svg"
   xmlns="http://www.w3.org/2000/svg"
   xmlns:sodipodi="http://sodipodi.sourceforge.net/DTD/sodipodi-0.dtd"
   xmlns:inkscape="http://www.inkscape.org/namespaces/inkscape"
   version="1.1"
   id="Layer_1"
   x="0px"
   y="0px"
   viewBox="0 0 469.336 469.336"
   style="enable-background:new 0 0 469.336 469.336;"
   xml:space="preserve"
   sodipodi:docname="pencil.svg"
   inkscape:version="1.0.2-2 (e86c870879, 2021-01-15)"><metadata
   id="metadata43"><rdf:RDF><cc:Work
       rdf:about=""><dc:format>image/svg+xml</dc:format><dc:type
         rdf:resource="http://purl.org/dc/dcmitype/StillImage" /></cc:Work></rdf:RDF></metadata><defs
   id="defs41" /><sodipodi:namedview
   pagecolor="#ffffff"
   bordercolor="#666666"
   borderopacity="1"
   objecttolerance="10"
   gridtolerance="10"
   guidetolerance="10"
   inkscape:pageopacity="0"
   inkscape:pageshadow="2"
   inkscape:window-width="1920"
   inkscape:window-height="1017"
   id="namedview39"
   showgrid="false"
   inkscape:zoom="1.8398498"
   inkscape:cx="234.668"
   inkscape:cy="234.668"
   inkscape:window-x="-8"
   inkscape:window-y="-8"
   inkscape:window-maximized="1"
   inkscape:current-layer="Layer_1" />
<g
   id="g6">
	<g
   id="g4">
		<path
   d="m 456.836,76.168 -64,-64.054 C 376.711,-4.025 348.659,-4.056 332.471,12.145 L 45.763,301.682 c -1.271,1.282 -2.188,2.857 -2.688,4.587 L 0.409,455.73 c -1.063,3.722 -0.021,7.736 2.719,10.478 2.031,2.033 4.75,3.128 7.542,3.128 0.979,0 1.969,-0.136 2.927,-0.407 L 162.93,426.226 c 1.729,-0.5 3.302,-1.418 4.583,-2.69 L 456.836,136.553 c 8.063,-8.069 12.5,-18.787 12.5,-30.192 0,-11.405 -4.437,-22.124 -12.5,-30.193 z m -170.847,13.569 39.264,39.264 -204.996,204.997 -14.712,-29.434 c -1.813,-3.615 -5.5,-5.896 -9.542,-5.896 H 78.921 Z M 26.201,443.137 40.095,394.5 74.837,429.242 Z M 149.336,407.96 98.301,422.539 46.798,371.036 61.377,320.001 h 28.031 l 18.385,36.771 c 1.031,2.063 2.708,3.74 4.771,4.771 l 36.771,18.385 v 28.032 z m 21.334,-17.543 v -17.082 c 0,-4.042 -2.281,-7.729 -5.896,-9.542 L 135.34,349.081 340.336,144.085 379.6,183.349 Z M 441.784,121.72 394.751,168.333 301.004,74.586 347.586,27.585 c 8.063,-8.063 22.104,-8.063 30.167,0 l 64,64 c 4.031,4.031 6.25,9.385 6.25,15.083 0,5.698 -2.219,11.052 -6.219,15.052 z"
   id="path2" />
	</g>
</g>
<g
   id="g8">
</g>
<g
   id="g10">
</g>
<g
   id="g12">
</g>
<g
   id="g14">
</g>
<g
   id="g16">
</g>
<g
   id="g18">
</g>
<g
   id="g20">
</g>
<g
   id="g22">
</g>
<g
   id="g24">
</g>
<g
   id="g26">
</g>
<g
   id="g28">
</g>
<g
   id="g30">
</g>
<g
   id="g32">
</g>
<g
   id="g34">
</g>
<g
   id="g36">
</g>
</svg>
