<?xml version="1.0" standalone="no"?>
<!DOCTYPE svg PUBLIC "-//W3C//DTD SVG 20010904//EN"
 "http://www.w3.org/TR/2001/REC-SVG-20010904/DTD/svg10.dtd">
<svg version="1.0" xmlns="http://www.w3.org/2000/svg"
 width="260.000000pt" height="260.000000pt" viewBox="0 0 260.000000 260.000000"
 preserveAspectRatio="xMidYMid meet">
<metadata>
Created by potrace 1.14, written by Peter Selinger 2001-2017
</metadata>
<g transform="translate(0.000000,260.000000) scale(0.100000,-0.100000)"
fill="#000000" stroke="none">
<path d="M0 1300 l0 -1300 1300 0 1300 0 0 1300 0 1300 -1300 0 -1300 0 0
-1300z m1058 368 l-3 -83 -237 -3 -238 -2 0 -120 0 -120 210 0 210 0 0 -85 0
-85 -210 0 -210 0 0 -165 0 -165 -105 0 -105 0 0 455 0 455 345 0 346 0 -3
-82z m481 -194 c90 -151 167 -277 171 -279 4 -3 81 121 171 275 l164 279 88 1
87 0 0 -455 0 -455 -95 0 -95 0 -1 38 c-1 20 -4 138 -8 261 l-6 223 -126 -208
-125 -209 -54 0 -54 0 -126 203 -125 202 -3 -255 -2 -255 -100 0 -100 0 0 455
0 455 88 0 87 -1 164 -275z"/>
</g>
</svg>
